<svg xmlns="http://www.w3.org/2000/svg" version="1.1" xmlns:xlink="http://www.w3.org/1999/xlink" xmlns:svgjs="http://svgjs.dev/svgjs" width="100%" height="100%" viewBox="0 0 1000 600"><rect width="1000" height="600" x="0" y="0" fill="#800000"/><g><rect width="333.3333333333333" height="333.3333333333333" rx="13.333333333333334" ry="13.333333333333334" y="133.20695847272407" fill="#fbf8be" transform="matrix(1.126280848871863,0,0,1.126280848871863,0,-37.74194111320861)" x="110.98472595214844"/><path d="M197.52055103375403 373.24745862863153L175.70746692160452 373.24745862863153L175.70746692160452 224.87362685293064L227.57662580010918 224.87362685293064L227.57662580010918 247.27549601180917L197.52055103375403 247.27549601180917L197.52055103375403 286.24745862863153L217.70746692160452 286.24745862863153L217.70746692160452 308.64932778751006L197.52055103375403 308.64932778751006L197.52055103375403 373.24745862863153ZM254.8289622487073 373.24745862863153L234.44578467861385 373.24745862863153L234.44578467861385 262.8362436753605L254.8289622487073 262.8362436753605L254.8289622487073 373.24745862863153ZM254.8289622487073 245.2568044230241L234.44578467861385 245.2568044230241L234.44578467861385 224.87362685293064L254.8289622487073 224.87362685293064L254.8289622487073 245.2568044230241ZM286.3429809402961 373.24745862863153L265.9317659870251 373.24745862863153L265.9317659870251 262.8362436753605L286.3429809402961 262.8362436753605L286.3429809402961 272.1166175071362Q289.9598033702026 268.58390722676245 294.501859444969 264.8829726473232Q299.0439155197354 261.21007545106147 302.8850370150625 261.21007545106147L302.8850370150625 261.21007545106147Q307.9317659870251 261.21007545106147 311.35232673468863 264.4343745164821Q314.80092486552974 267.6586735819026 316.5112052393615 272.6212904043325Q318.2214856131933 277.5558698435848 318.2214856131933 282.79886049779043L318.2214856131933 282.79886049779043L318.2214856131933 373.24745862863153L297.8383080430999 373.24745862863153L297.8383080430999 286.8362436753606Q297.8383080430999 283.61194460994 296.7168127159971 282.2941876005942Q295.6233547720718 281.004467974426 292.98784075338017 281.004467974426L292.98784075338017 281.004467974426Q290.7728874823522 281.004467974426 289.20279402440826 282.54652404919227Q287.63270056646434 284.1166175071362 286.3429809402961 286.24745862863153L286.3429809402961 286.24745862863153L286.3429809402961 373.24745862863153ZM343.0626071085204 374.87362685293067L343.0626071085204 374.87362685293067Q338.01587813655783 374.87362685293067 334.48316785618397 371.7334399370428Q330.9504575758101 368.59325302115496 329.128027669268 363.6025988155475Q327.30559776272605 358.61194460994 327.30559776272605 353.25680442302405L327.30559776272605 353.25680442302405L327.30559776272605 282.79886049779043Q327.30559776272605 277.47175769405214 329.0719529029129 272.5091408716222Q330.8383080430998 267.57456143236993 334.37101832347366 264.37829975012687Q337.9037286038475 261.21007545106147 343.0626071085204 261.21007545106147L343.0626071085204 261.21007545106147Q346.9037286038475 261.21007545106147 351.13737346366065 263.8455894697531Q355.37101832347366 266.4530661052671 359.2121398188008 270.09792591835117L359.2121398188008 270.09792591835117L359.2121398188008 224.87362685293064L379.5953173888943 224.87362685293064L379.5953173888943 373.24745862863153L359.2121398188008 373.24745862863153L359.2121398188008 365.98577638564086Q355.1747566412307 369.5184866660147 351.2214856131933 372.1820380678839Q347.29625196833354 374.87362685293067 343.0626071085204 374.87362685293067ZM352.7355043047821 355.69605675947264L352.7355043047821 355.69605675947264Q355.0626071085204 355.69605675947264 357.13737346366065 353.76147732022037Q359.2121398188008 351.85493526414564 359.2121398188008 349.02315956321104L359.2121398188008 349.02315956321104L359.2121398188008 287.0605427407811Q359.2121398188008 284.6212904043325 357.13737346366065 282.5184866660147Q355.0626071085204 280.3876455445194 352.7355043047821 280.3876455445194L352.7355043047821 280.3876455445194Q350.52055103375403 280.3876455445194 349.1186818748756 282.26615021741657Q347.68877533281943 284.1166175071362 347.68877533281943 287.0605427407811L347.68877533281943 287.0605427407811L347.68877533281943 349.02315956321104Q347.68877533281943 351.85493526414564 349.1186818748756 353.76147732022037Q350.52055103375403 355.69605675947264 352.7355043047821 355.69605675947264Z " fill="#234E7" transform="matrix(1.126280848871863,0,0,1.126280848871863,0,-37.74194111320861)"/><path d="M527.6513909642072 374.6517296096814L527.6513909642072 374.6517296096814L527.6513909642072 353.4886386102505Q529.0659619222293 353.68279540841047 529.7593790585147 353.68279540841047L529.7593790585147 353.68279540841047Q534.2527221016443 353.68279540841047 536.7490237922718 350.853653492366Q539.2453254828993 347.99677489087003 539.2453254828993 342.6990679696495L539.2453254828993 342.6990679696495L539.2453254828993 226.48235592821374L560.79673007865 226.48235592821374L560.79673007865 346.1106802801737Q560.79673007865 355.59662670455816 557.3573810826742 361.97606435838406Q553.9180320866986 368.3832386976612 547.3167009492615 371.57295752457424Q540.7431064972757 374.76267635148713 531.3403701292455 374.76267635148713L531.3403701292455 374.76267635148713Q530.4527961948002 374.76267635148713 529.5652222603549 374.76267635148713Q528.6499116404581 374.76267635148713 527.6513909642072 374.6517296096814ZM604.537483035534 374.87362309329274L604.537483035534 374.87362309329274Q595.5507969492751 374.87362309329274 589.1158859245463 370.65764690467745Q582.6809748998178 366.46940740151354 579.2416259038421 359.28560586959657Q575.774540222415 352.1018043376797 575.774540222415 343.11511825142077L575.774540222415 343.11511825142077L575.774540222415 256.6321330139036Q575.774540222415 247.5622368712904 579.2416259038421 240.40617202482488Q582.6809748998178 233.27784386381083 589.1158859245463 229.08960436064692Q595.5507969492751 224.87362817203157 604.537483035534 224.87362817203157L604.537483035534 224.87362817203157Q613.524169121793 224.87362817203157 619.9590801465217 229.08960436064692Q626.4217278567018 233.27784386381083 629.8610768526775 240.46164539572771Q633.3004258486532 247.64544692764466 633.3004258486532 256.6321330139036L633.3004258486532 256.6321330139036L633.3004258486532 343.11511825142077Q633.3004258486532 352.1018043376797 629.8610768526775 359.28560586959657Q626.4217278567018 366.46940740151354 619.9590801465217 370.65764690467745Q613.524169121793 374.87362309329274 604.537483035534 374.87362309329274ZM604.537483035534 353.9046888920218L604.537483035534 353.9046888920218Q608.5315657405381 353.9046888920218 610.1402934967202 350.5485499524003Q611.721284567451 347.19241101277896 611.721284567451 343.11511825142077L611.721284567451 343.11511825142077L611.721284567451 256.6321330139036Q611.721284567451 252.55484025254538 610.0293467549145 249.198701312924Q608.337408942378 245.84256237330257 604.537483035534 245.84256237330257L604.537483035534 245.84256237330257Q600.8485038704956 245.84256237330257 599.1010926870564 249.198701312924Q597.353681503617 252.55484025254538 597.353681503617 256.6321330139036L597.353681503617 256.6321330139036L597.353681503617 343.11511825142077Q597.353681503617 347.19241101277896 599.0456193161535 350.5485499524003Q600.73755712869 353.9046888920218 604.537483035534 353.9046888920218ZM673.8514599786243 373.2648953371106L648.2782359924182 373.2648953371106L648.2782359924182 226.48235592821374L670.2456908699402 226.48235592821374Q681.423575106861 226.48235592821374 689.5781606295776 230.4209652623149Q697.7050094668426 234.35957459641608 702.1428791390691 242.7637902881953Q706.5807488112958 251.14026929452314 706.5807488112958 264.4261416257517L706.5807488112958 264.4261416257517Q706.5807488112958 275.0215554681929 703.8348169516056 282.8987741363952Q701.0888850919154 290.77599280459754 693.2116664237132 295.7685961858525L693.2116664237132 295.7685961858525Q701.1998318337211 300.17872917262775 704.6946542005995 309.72014896791507Q708.189476567478 319.233832077751 708.189476567478 331.7153405308885L708.189476567478 331.7153405308885Q708.189476567478 344.00269218586607 704.2508672333769 353.4054285538963Q700.3122578992758 362.78042823647513 692.6569327146848 368.0226617867928Q685.0293442155452 373.2648953371106 673.8514599786243 373.2648953371106L673.8514599786243 373.2648953371106ZM669.8573772736203 306.7523236246135L669.8573772736203 351.90764753951976Q679.620690552519 351.90764753951976 682.7271993230776 346.05520690927085Q685.8337080936363 340.20276627902194 685.8337080936363 329.3299855820667L685.8337080936363 329.3299855820667Q685.8337080936363 318.2353114015 682.7271993230776 312.4938175130568Q679.620690552519 306.7523236246135 669.8573772736203 306.7523236246135L669.8573772736203 306.7523236246135ZM669.8573772736203 247.83960372580455L669.8573772736203 287.0038035832049Q678.9272734162336 287.0038035832049 682.3666224122093 282.0112002019498Q685.8337080936363 277.0185968206948 685.8337080936363 267.2275468563448L685.8337080936363 267.2275468563448Q685.8337080936363 257.3255501501891 682.2834123558549 252.5825769379968Q678.7331166180735 247.83960372580455 669.8573772736203 247.83960372580455L669.8573772736203 247.83960372580455ZM746.937626143107 374.87362309329274L746.937626143107 374.87362309329274Q738.0341501132024 374.87362309329274 732.153972797502 371.90579774999117Q726.2737954818018 368.96570909214097 722.8621831712775 363.39063531640625Q719.4783075462047 357.78782485522015 718.0359999027309 349.91060618701783Q716.5659555738058 342.00565083336403 716.5659555738058 332.1313908126597L716.5659555738058 332.1313908126597L737.7567832586882 330.13434946015775Q737.7567832586882 334.9327960432528 738.0896234841051 339.3706657154795Q738.4502003949736 343.8085353877061 739.3932477003217 347.3588311254874Q740.33629500567 350.90912686326874 742.1946529309149 352.989378272125Q744.0252741707083 355.09736636643265 746.937626143107 355.09736636643265L746.937626143107 355.09736636643265Q751.7360727262022 355.09736636643265 753.7331140787043 350.65949669420604Q755.7301554312063 346.19389033652794 755.7301554312063 339.9253994245079L755.7301554312063 339.9253994245079Q755.7301554312063 333.6291718270362 752.4294898624877 326.83368389143914Q749.1288242937691 320.03819595584207 744.5245345088339 313.96386184198184L744.5245345088339 313.96386184198184Q736.7582625824372 303.5626047977006 730.9058219521884 294.68686545324726Q725.0533813219394 285.78338942334256 721.8081891241237 277.2127536188548Q718.5629969263078 268.6143811289156 718.5629969263078 259.2393814463368L718.5629969263078 259.2393814463368Q718.5629969263078 251.83368643080854 720.4768282224555 245.59293220423982Q722.3629228331519 239.35217797767106 726.024165312739 234.72015150728447Q729.6576711068745 230.0881250368979 734.8444312862895 227.48087660446473Q740.0311914657044 224.87362817203157 746.7434693449471 224.87362817203157L746.7434693449471 224.87362817203157Q755.0090016094695 224.87362817203157 760.7504954979125 227.67503340262465Q766.4919893863558 230.47643863321773 770.0422851241373 235.66319881263266Q773.5925808619185 240.84995899204756 775.2290453035522 248.00602383851307Q776.8932464306371 255.13435199952713 776.8932464306371 263.8159345458205L776.8932464306371 263.8159345458205L755.7301554312063 265.8129758983225Q755.7301554312063 262.1239967332841 755.3695785203378 258.37954419734285Q755.0090016094695 254.63509166140162 754.1214276750239 251.55631957629438Q753.2338537405786 248.44981080573572 751.5141792425908 246.56371619503938Q749.8222414300545 244.64988489889166 747.131782941267 244.64988489889166L747.131782941267 244.64988489889166Q742.9435434381031 244.64988489889166 741.334815681921 248.20018063667297Q739.7538246111902 251.75047637445428 739.7538246111902 258.24086077008576L739.7538246111902 258.24086077008576Q739.7538246111902 266.6173397764136 744.2471676543197 274.4113483882617Q748.7405106974492 282.20535700010976 756.312625825686 292.5788773589396L756.312625825686 292.5788773589396Q765.4102586537507 304.8662290139172 771.1517525421938 315.1565393163927Q776.8932464306371 325.4468496188683 776.8932464306371 337.92835807200584L776.8932464306371 337.92835807200584Q776.8932464306371 345.80557674020815 775.2013086181006 352.54559130490236Q773.4816341201127 359.28560586959657 769.8481283259772 364.27820925085166Q766.2146225318417 369.27081263210664 760.5563386997527 372.07221786269963Q754.9257915531151 374.87362309329274 746.937626143107 374.87362309329274Z " fill="#fbf8be" transform="matrix(1.126280848871863,0,0,1.126280848871863,0,-37.74194111320861)"/></g></svg>